<svg width="63" height="27" viewBox="0 0 63 27" fill="none" xmlns="http://www.w3.org/2000/svg">
<g clip-path="url(#clip0_1_483)">
<path d="M55.4334 12.8111L55.4056 12.839C55.6007 12.3093 55.991 12.1142 56.3255 12.1142C56.7994 12.1142 57.2175 12.4766 57.2175 13.0062C57.2175 13.1178 57.2175 13.2571 57.1618 13.4244C56.1861 15.9333 54.1232 17.2155 52.1162 17.4107C51.1963 18.9717 49.691 20.1147 47.5445 20.1147C44.4781 20.1147 43.1122 17.6895 43.1122 15.0412C43.1122 11.7797 45.1751 8.15576 48.6317 8.15576C49.3843 8.15576 50.0255 8.32309 50.5551 8.54606C52.1162 9.13144 53.1197 11.1664 53.1197 13.3407C53.1197 14.0376 53.0639 14.7345 52.8967 15.4036C53.9282 15.0412 54.9038 14.2049 55.4334 12.8111ZM49.6073 10.4416V10.4138C48.9941 10.4138 48.6317 11.2221 48.6317 12.1978C48.6317 13.6195 49.4122 14.9297 50.6387 15.4036C50.8339 14.7903 50.9175 14.0934 50.9175 13.285C50.9175 11.724 50.4436 10.4416 49.6073 10.4416ZM47.5724 18.0797C48.3529 18.0797 49.1334 17.7452 49.7467 17.0483C47.9348 16.2399 46.7918 14.3443 46.7918 12.5323C46.7918 11.919 46.9034 11.2779 47.0706 10.7204C45.9556 11.6403 45.3144 13.4523 45.3144 15.0412C45.3144 17.104 46.2901 18.0797 47.5724 18.0797Z" fill="white"/>
<path d="M43.5426 12.8111L43.5147 12.839C43.7099 12.3094 44.0444 12.0864 44.3789 12.0864C44.8528 12.0864 45.3266 12.5045 45.3266 13.0342C45.3266 13.1735 45.2988 13.285 45.243 13.4244C44.1559 16.0726 42.539 19.1669 39.9466 20.9788L39.8909 21.5364C39.5842 24.8815 37.8838 27.0001 35.7373 27.0001C34.1204 27.0001 33.1727 25.885 33.1727 24.5749C33.1727 22.2054 35.5979 21.3412 37.8559 19.8917C37.9116 19.3063 37.9395 18.6373 37.9673 17.8846C36.8523 19.1111 35.6537 19.6129 34.5944 19.6129C32.4758 19.6129 30.7475 17.8846 30.7475 15.2364C30.7475 11.1664 33.4235 8.49036 36.4063 8.49036H36.4342C38.4692 8.49036 40.6435 9.57748 40.6435 11.5288C40.6435 12.17 40.3647 15.6545 40.1417 18.3585C41.647 16.9368 42.9014 14.6231 43.5426 12.8111ZM34.901 17.6059C35.9324 17.6059 37.3262 16.9647 38.1904 13.8147C38.3297 13.1178 38.4134 12.5045 38.3855 11.7797C38.2183 11.0271 37.5771 10.5811 36.6572 10.5811C34.7616 10.5811 32.9497 12.393 32.9497 15.1528C32.9497 16.8253 33.7302 17.6059 34.901 17.6059ZM35.9603 24.9652H35.9882C36.5735 24.9652 37.2147 24.5749 37.6328 22.066C36.4063 22.7908 35.2634 23.5156 35.2634 24.3797C35.2634 24.7421 35.5421 24.9652 35.9603 24.9652Z" fill="white"/>
<path d="M31.2366 12.8111L31.2088 12.839C31.4039 12.3093 31.7942 12.1142 32.1287 12.1142C32.6026 12.1142 33.0207 12.4766 33.0207 13.0062C33.0207 13.1178 33.0207 13.2571 32.965 13.4244C31.9893 15.9333 29.9265 17.2155 27.9194 17.4107C26.9995 18.9717 25.4942 20.1147 23.3477 20.1147C20.2813 20.1147 18.9154 17.6895 18.9154 15.0412C18.9154 11.7797 20.9782 8.15576 24.4349 8.15576C25.1875 8.15576 25.8287 8.32309 26.3583 8.54606C27.9194 9.13144 28.923 11.1664 28.923 13.3407C28.923 14.0376 28.8672 14.7345 28.6999 15.4036C29.7314 15.0412 30.707 14.2049 31.2366 12.8111ZM25.4106 10.4416V10.4138C24.7973 10.4138 24.4349 11.2221 24.4349 12.1978C24.4349 13.6195 25.2154 14.9297 26.442 15.4036C26.6371 14.7903 26.7207 14.0934 26.7207 13.285C26.7207 11.724 26.2468 10.4416 25.4106 10.4416ZM23.3756 18.0797C24.1561 18.0797 24.9366 17.7452 25.5499 17.0483C23.738 16.2399 22.5951 14.3443 22.5951 12.5323C22.5951 11.919 22.7066 11.2779 22.8738 10.7204C21.7588 11.6403 21.1176 13.4523 21.1176 15.0412C21.1176 17.104 22.0933 18.0797 23.3756 18.0797Z" fill="white"/>
<path d="M20.3322 11.9313C19.9419 11.9313 19.6074 12.1264 19.3843 12.6561C18.6596 14.4959 17.1542 17.6181 15.621 17.6181C14.6556 17.6181 13.9085 17.3997 13.1536 17.1791C12.3826 16.9538 11.6035 16.726 10.5753 16.726C10.2129 16.726 9.71115 16.7818 9.23725 16.8654C10.6649 14.9186 11.1983 12.5608 11.7151 8.10409C10.742 8.04214 9.95045 7.86236 9.37349 7.68079C8.75725 13.3332 8.05746 15.4884 5.50178 17.6181C5.16726 17.8968 5 18.2871 5 18.6774C5 19.2907 5.52966 19.8204 6.1987 19.8204C6.42172 19.8204 6.6726 19.7367 6.92349 19.6252C8.3452 18.984 9.20938 18.8168 10.2687 18.8168C10.9423 18.8168 11.7484 19.0095 12.6114 19.2156C13.6054 19.4532 14.675 19.7088 15.7047 19.7088C17.9626 19.7088 19.4401 17.5066 21.0848 13.2414C21.1685 13.1021 21.1963 12.9348 21.1963 12.7954C21.1963 12.2658 20.7782 11.9313 20.3322 11.9313Z" fill="white"/>
<path fill-rule="evenodd" clip-rule="evenodd" d="M9.51493 6.52715C10.0197 6.70338 10.8079 6.90855 11.8297 6.96925L11.9969 6.96916C15.147 6.96916 17.2099 5.0178 17.2099 2.67616C17.2099 1.17082 16.0391 0 14.3943 0C12.1921 0 10.6589 1.50534 9.87832 4.48814C8.90264 3.95849 8.2336 3.01068 7.89908 1.81199C7.73181 1.22657 7.36942 0.864173 6.86763 0.864173C6.25435 0.864173 5.86407 1.33808 5.86407 1.97924C5.86407 3.87486 7.34154 5.68684 9.51592 6.52314L9.51493 6.52715ZM12.1642 4.93417C12.5823 3.01068 13.2514 2.09075 14.1435 2.09075C14.6174 2.09075 14.924 2.36952 14.924 2.8713C14.924 3.79123 13.9483 4.87841 12.1642 4.93417Z" fill="white"/>
</g>
<defs>
<clipPath id="clip0_1_483">
<rect width="52.5" height="27" fill="white" transform="translate(5)"/>
</clipPath>
</defs>
</svg>
