<svg width="64" height="28" viewBox="0 0 64 28" fill="none" xmlns="http://www.w3.org/2000/svg">
<g clip-path="url(#clip0_1_290)">
<g clip-path="url(#clip1_1_290)">
<path d="M55.9334 13.3111L55.9056 13.339C56.1007 12.8093 56.491 12.6142 56.8255 12.6142C57.2994 12.6142 57.7175 12.9766 57.7175 13.5062C57.7175 13.6178 57.7175 13.7571 57.6618 13.9244C56.6861 16.4333 54.6232 17.7155 52.6162 17.9107C51.6963 19.4717 50.191 20.6147 48.0445 20.6147C44.9781 20.6147 43.6122 18.1895 43.6122 15.5412C43.6122 12.2797 45.6751 8.65576 49.1317 8.65576C49.8843 8.65576 50.5255 8.82309 51.0551 9.04606C52.6162 9.63144 53.6197 11.6664 53.6197 13.8407C53.6197 14.5376 53.5639 15.2345 53.3967 15.9036C54.4282 15.5412 55.4038 14.7049 55.9334 13.3111ZM50.1073 10.9416V10.9138C49.4941 10.9138 49.1317 11.7221 49.1317 12.6978C49.1317 14.1195 49.9122 15.4297 51.1387 15.9036C51.3339 15.2903 51.4175 14.5934 51.4175 13.785C51.4175 12.224 50.9436 10.9416 50.1073 10.9416ZM48.0724 18.5797C48.8529 18.5797 49.6334 18.2452 50.2467 17.5483C48.4348 16.7399 47.2918 14.8443 47.2918 13.0323C47.2918 12.419 47.4034 11.7779 47.5706 11.2204C46.4556 12.1403 45.8144 13.9523 45.8144 15.5412C45.8144 17.604 46.7901 18.5797 48.0724 18.5797Z" fill="black"/>
<path d="M44.0426 13.311L44.0147 13.3389C44.2099 12.8092 44.5444 12.5863 44.8789 12.5863C45.3528 12.5863 45.8266 13.0044 45.8266 13.534C45.8266 13.6734 45.7988 13.7849 45.743 13.9243C44.6559 16.5725 43.039 19.6668 40.4466 21.4787L40.3909 22.0363C40.0842 25.3814 38.3838 27.4999 36.2373 27.4999C34.6204 27.4999 33.6727 26.3849 33.6727 25.0747C33.6727 22.7053 36.0979 21.8411 38.3559 20.3916C38.4116 19.8061 38.4395 19.1371 38.4673 18.3844C37.3523 19.611 36.1537 20.1128 35.0944 20.1128C32.9758 20.1128 31.2475 18.3844 31.2475 15.7363C31.2475 11.6663 33.9235 8.99023 36.9063 8.99023H36.9342C38.9692 8.99023 41.1435 10.0774 41.1435 12.0287C41.1435 12.6699 40.8647 16.1544 40.6417 18.8584C42.147 17.4367 43.4014 15.123 44.0426 13.311ZM35.401 18.1057C36.4324 18.1057 37.8262 17.4646 38.6904 14.3146C38.8297 13.6177 38.9134 13.0044 38.8855 12.2796C38.7183 11.527 38.0771 11.0809 37.1572 11.0809C35.2616 11.0809 33.4497 12.8929 33.4497 15.6526C33.4497 17.3252 34.2302 18.1057 35.401 18.1057ZM36.4603 25.465H36.4882C37.0735 25.465 37.7147 25.0747 38.1328 22.5659C36.9063 23.2906 35.7634 24.0154 35.7634 24.8796C35.7634 25.242 36.0421 25.465 36.4603 25.465Z" fill="black"/>
<path d="M31.7366 13.3111L31.7088 13.339C31.9039 12.8093 32.2942 12.6142 32.6287 12.6142C33.1026 12.6142 33.5207 12.9766 33.5207 13.5062C33.5207 13.6178 33.5207 13.7571 33.465 13.9244C32.4893 16.4333 30.4265 17.7155 28.4194 17.9107C27.4995 19.4717 25.9942 20.6147 23.8477 20.6147C20.7813 20.6147 19.4154 18.1895 19.4154 15.5412C19.4154 12.2797 21.4782 8.65576 24.9349 8.65576C25.6875 8.65576 26.3287 8.82309 26.8583 9.04606C28.4194 9.63144 29.423 11.6664 29.423 13.8407C29.423 14.5376 29.3672 15.2345 29.1999 15.9036C30.2314 15.5412 31.207 14.7049 31.7366 13.3111ZM25.9106 10.9416V10.9138C25.2973 10.9138 24.9349 11.7221 24.9349 12.6978C24.9349 14.1195 25.7154 15.4297 26.942 15.9036C27.1371 15.2903 27.2207 14.5934 27.2207 13.785C27.2207 12.224 26.7468 10.9416 25.9106 10.9416ZM23.8756 18.5797C24.6561 18.5797 25.4366 18.2452 26.0499 17.5483C24.238 16.7399 23.0951 14.8443 23.0951 13.0323C23.0951 12.419 23.2066 11.7779 23.3738 11.2204C22.2588 12.1403 21.6176 13.9523 21.6176 15.5412C21.6176 17.604 22.5933 18.5797 23.8756 18.5797Z" fill="black"/>
<path d="M20.8322 12.4311C20.4419 12.4311 20.1074 12.6263 19.8843 13.1559C19.1596 14.9958 17.6542 18.1179 16.121 18.1179C15.1556 18.1179 14.4085 17.8996 13.6536 17.679C12.8826 17.4537 12.1035 17.2259 11.0753 17.2259C10.7129 17.2259 10.2112 17.2817 9.73725 17.3653C11.1649 15.4185 11.6983 13.0607 12.2151 8.60396C11.242 8.54201 10.4504 8.36224 9.87349 8.18066C9.25725 13.833 8.55746 15.9882 6.00178 18.1179C5.66726 18.3967 5.5 18.787 5.5 19.1773C5.5 19.7906 6.02966 20.3202 6.6987 20.3202C6.92172 20.3202 7.1726 20.2366 7.42349 20.1251C8.8452 19.4839 9.70938 19.3167 10.7687 19.3167C11.4423 19.3167 12.2484 19.5093 13.1114 19.7155C14.1054 19.9531 15.175 20.2087 16.2047 20.2087C18.4626 20.2087 19.9401 18.0065 21.5848 13.7413C21.6685 13.602 21.6963 13.4347 21.6963 13.2953C21.6963 12.7656 21.2782 12.4311 20.8322 12.4311Z" fill="black"/>
<path fill-rule="evenodd" clip-rule="evenodd" d="M10.0149 7.02715C10.5197 7.20338 11.3079 7.40855 12.3297 7.46925L12.4969 7.46916C15.647 7.46916 17.7099 5.5178 17.7099 3.17616C17.7099 1.67082 16.5391 0.5 14.8943 0.5C12.6921 0.5 11.1589 2.00534 10.3783 4.98814C9.40264 4.45849 8.7336 3.51068 8.39908 2.31199C8.23181 1.72657 7.86942 1.36417 7.36763 1.36417C6.75435 1.36417 6.36407 1.83808 6.36407 2.47924C6.36407 4.37486 7.84154 6.18684 10.0159 7.02314L10.0149 7.02715ZM12.6642 5.43417C13.0823 3.51068 13.7514 2.59075 14.6435 2.59075C15.1174 2.59075 15.424 2.86952 15.424 3.3713C15.424 4.29123 14.4483 5.37841 12.6642 5.43417Z" fill="black"/>
</g>
</g>
<defs>
<clipPath id="clip0_1_290">
<rect width="63" height="27" fill="white" transform="translate(0.5 0.5)"/>
</clipPath>
<clipPath id="clip1_1_290">
<rect width="52.5" height="27" fill="white" transform="translate(5.5 0.5)"/>
</clipPath>
</defs>
</svg>
