<svg width="63" height="58" viewBox="0 0 63 58" fill="none" xmlns="http://www.w3.org/2000/svg">
<path d="M61.3759 33.7646C60.044 31.4598 57.0861 30.6678 54.7824 31.9989L40.4442 40.2735C40.492 40.1452 40.5343 40.0135 40.5706 39.8784C41.1924 37.5571 39.81 35.1619 37.4889 34.5387L23.2913 30.733C22.0091 30.3215 20.439 30.4848 19.2821 31.1521L9.43937 36.8334L8.63675 35.4432C7.84175 34.0709 6.07775 33.5984 4.7045 34.3911L1.45525 36.269C0.0808747 37.0625 -0.391625 38.8264 0.40175 40.2014L9.625 56.178C10.009 56.8435 10.6309 57.3196 11.376 57.5187C11.6246 57.5853 11.8767 57.618 12.1269 57.618C12.6256 57.618 13.1169 57.4874 13.5577 57.2319L16.8094 55.3546C17.4733 54.9726 17.9488 54.352 18.1483 53.6073C18.3474 52.864 18.2467 52.0893 17.8644 51.4248L17.062 50.0351L18.4303 49.2451C19.0665 48.8774 19.3149 48.8853 20.2738 49.0993L34.4335 52.8921C34.9402 53.028 35.4551 53.0952 35.9676 53.0952C36.9971 53.0952 38.0168 52.8239 38.9385 52.2926L59.6063 40.359C60.7202 39.7165 61.5184 38.675 61.8535 37.4265C62.1886 36.178 62.019 34.8774 61.3761 33.7648L61.3759 33.7646ZM16.2143 53.0892C16.1535 53.3164 16.0101 53.5046 15.8095 53.6201L12.5554 55.4989C12.355 55.615 12.1198 55.6452 11.8927 55.5846C11.6649 55.5238 11.4753 55.3791 11.3589 55.1772L2.1355 39.2005C1.89375 38.7815 2.03762 38.244 2.45625 38.0024L5.7055 36.1245C5.84287 36.0452 5.99312 36.0075 6.14162 36.0075C6.44512 36.0075 6.741 36.1648 6.90362 36.4453L16.1297 52.4243C16.2452 52.6251 16.2753 52.8614 16.2143 53.0892ZM59.9198 36.9074C59.7234 37.6394 59.2567 38.2492 58.6055 38.6247L37.9381 50.5583C37.0211 51.0866 35.9604 51.2289 34.9516 50.9581L20.7714 47.1598C20.758 47.1561 20.7444 47.1529 20.7309 47.1497C19.5655 46.8892 18.706 46.7734 17.4287 47.5114L16.0607 48.3011L10.4404 38.5667L20.2826 32.8857C20.9552 32.4976 21.947 32.3979 22.6941 32.6436C22.7119 32.6494 22.7296 32.6548 22.7476 32.6595L36.9701 36.472C38.2254 36.809 38.973 38.1045 38.6371 39.3587C38.3057 40.5895 37.0612 41.2919 35.8034 40.9582C35.8015 40.9577 35.7998 40.9575 35.7979 40.9571L25.109 38.127C24.5742 37.9854 24.0266 38.3041 23.8851 38.8384C23.7436 39.3727 24.0621 39.9207 24.5965 40.0622L35.3291 42.9039C35.3302 42.9041 35.3314 42.9042 35.3325 42.9045L36.9953 43.347C38.256 43.6797 38.9708 43.4365 40.6176 42.4844L55.7832 33.7321C57.132 32.9533 58.8629 33.4169 59.6423 34.7659C60.0174 35.4151 60.1159 36.1755 59.9195 36.9071L59.9198 36.9074ZM10.0676 17.0075L11.7596 17.3926C11.9105 17.8396 12.0916 18.2764 12.3015 18.6998L11.3781 20.1671C10.7828 21.1098 10.8373 22.1579 11.5166 22.8374L12.98 24.3008C13.6594 24.9801 14.7073 25.0346 15.6483 24.4406L17.1206 23.5158C17.544 23.7256 17.981 23.9069 18.428 24.0578L18.8125 25.7498C19.0555 26.8364 19.834 27.5385 20.7956 27.5385H22.8684C23.8398 27.5385 24.6005 26.8555 24.8544 25.7531L25.2397 24.0579C25.4445 23.9888 25.6462 23.9109 25.8465 23.8291V28.8974C25.8465 30.225 26.9281 31.305 28.2577 31.305H40.7834C42.1129 31.305 43.1945 30.2249 43.1945 28.8974V27.5249C43.3251 27.5334 43.4577 27.5385 43.5931 27.5385H55.2046C57.1744 27.5385 58.6286 26.6354 59.4104 24.9266C60.5486 22.4388 59.8765 19.0258 59.3746 17.2128C58.7115 14.8176 57.6043 12.4661 56.33 10.698C56.7018 10.2223 56.9214 9.53963 56.9214 8.75363C56.9214 8.01975 56.7169 7.06788 56.1529 6.52738C57.3794 4.5925 57.9649 2.249 57.033 1.09188C56.621 0.580252 55.6296 -0.0988735 53.6205 1.10225L52.5636 1.735C52.4414 1.80763 52.3574 1.84888 52.3035 1.87213C52.3011 1.87075 52.2989 1.8695 52.2966 1.86825L50.7632 1.00538C50.2526 0.720876 49.8167 0.594876 49.3964 0.614251C48.9787 0.596376 48.5324 0.725376 48.0311 1.00725L46.5029 1.86688C46.4999 1.86863 46.4966 1.87038 46.4934 1.87225C46.4401 1.84925 46.3571 1.80838 46.2368 1.7365L45.1764 1.10163C43.1636 -0.100124 42.1721 0.581626 41.7601 1.09475C40.8265 2.25813 41.4182 4.60688 42.6529 6.54425C42.6413 6.55513 42.629 6.56488 42.6176 6.57613C42.1444 7.04575 41.8729 7.83938 41.8729 8.7535C41.8729 9.474 42.053 10.1035 42.3619 10.5679C41.8552 11.2643 41.3755 12.0565 40.937 12.9219L36.4385 8.37175C35.9251 7.853 35.2439 7.56725 34.5204 7.56738C33.7969 7.56738 33.1157 7.85313 32.6021 8.37213L31.4745 9.51275C31.4372 9.43225 31.4012 9.351 31.362 9.2715L32.286 7.80325C32.8814 6.86063 32.827 5.8125 32.1475 5.133L30.6841 3.66963C30.0048 2.99013 28.9566 2.93588 28.0151 3.53025L26.5441 4.456C26.1195 4.24688 25.6835 4.066 25.2399 3.91475L24.854 2.2195C24.6016 1.11688 23.8409 0.432001 22.8682 0.432001H20.7955C19.8328 0.432001 19.0541 1.136 18.8131 2.22063L18.4276 3.91463C17.9815 4.06638 17.5451 4.24725 17.1222 4.45588L15.6501 3.53113C14.7074 2.93575 13.6592 2.99038 12.98 3.66963L11.5166 5.133C10.837 5.8125 10.7828 6.86063 11.3767 7.80125L12.3016 9.27363C12.0916 9.69713 11.9105 10.1341 11.7595 10.5813L10.0725 10.9653C8.98287 11.2075 8.27888 11.986 8.27888 12.9488V15.0216C8.27888 15.9941 8.96387 16.755 10.0676 17.0075ZM35.977 29.303H33.0644V24.9749C33.0644 24.1729 33.7184 23.5204 34.5224 23.5204C35.3264 23.5204 35.977 24.1729 35.977 24.9749V29.303ZM44.0104 9.42725C43.958 9.33175 43.8751 9.11113 43.8751 8.75363C43.8751 8.51238 43.909 8.3275 43.9466 8.19925C47.4512 8.91313 51.0275 8.91038 54.8481 8.191C54.8867 8.33113 54.9195 8.5235 54.9195 8.75363C54.9195 9.12325 54.8302 9.34375 54.7781 9.43225C51.4659 10.1738 47.8466 10.1725 44.0103 9.42725H44.0104ZM43.2996 2.44525C43.4369 2.47125 43.7057 2.55513 44.1493 2.82L45.2095 3.45475C46.2439 4.07263 46.8489 3.97188 47.4895 3.60888L49.0127 2.752C49.1946 2.64975 49.2911 2.62238 49.3209 2.61575L49.3964 2.6235L49.475 2.6155C49.5037 2.62163 49.5983 2.64775 49.7851 2.75188L51.2583 3.5805L51.3027 3.60588C51.9419 3.97138 52.547 4.074 53.5892 3.454L54.6483 2.82013C55.09 2.556 55.3584 2.47163 55.4956 2.44525C55.5928 3.02725 55.109 4.82813 53.815 6.33875C50.7389 6.85025 47.8347 6.857 44.9977 6.35888C43.6893 4.84263 43.2005 3.02938 43.2995 2.44525H43.2996ZM44.1699 11.4923C46.028 11.8231 47.8422 11.9896 49.6021 11.9896C51.2736 11.9896 52.8958 11.8385 54.4608 11.5403C57.0078 14.8411 58.9449 21.1324 57.5899 24.0939C57.1395 25.0783 56.3816 25.5366 55.2046 25.5366H43.5931C43.4538 25.5366 43.3223 25.5279 43.1945 25.515V21.7134C44.2921 21.7046 45.2351 21.0721 45.6591 20.0581C46.0864 19.0363 45.8679 17.911 45.0881 17.1209L42.4295 14.4318C42.95 13.3065 43.5416 12.3074 44.1698 11.4924L44.1699 11.4923ZM34.0256 9.78013C34.16 9.64438 34.3358 9.5695 34.5205 9.5695C34.7052 9.5695 34.8812 9.64438 35.0154 9.77988L43.6639 18.5276C43.9588 18.8265 43.8659 19.1575 43.8122 19.2858C43.7586 19.4138 43.5892 19.7114 43.1717 19.7114H42.1937C41.6409 19.7114 41.1927 20.1595 41.1927 20.7124V28.8974C41.1927 29.1173 41.0054 29.3031 40.7836 29.3031H37.979V24.975C37.979 23.069 36.4285 21.5185 34.5225 21.5185C32.6165 21.5185 31.0625 23.069 31.0625 24.975V29.3031H28.2579C28.0361 29.3031 27.8486 29.1174 27.8486 28.8974V20.7124C27.8486 20.1595 27.4005 19.7114 26.8476 19.7114H25.8697C25.4522 19.7114 25.2829 19.4138 25.2292 19.2858C25.2105 19.2409 25.1873 19.171 25.1771 19.0868C25.177 19.0855 25.1769 19.0844 25.1766 19.0833C25.1585 18.9268 25.1869 18.7209 25.3769 18.5283L28.188 15.6849C28.1886 15.6841 28.1894 15.6835 28.1901 15.6828L34.0259 9.78013H34.0256ZM21.8339 18.7086C19.2284 18.7086 17.1087 16.5906 17.1087 13.9871C17.1087 11.3836 19.2284 9.26213 21.8339 9.26213C24.4394 9.26213 26.5553 11.3818 26.5553 13.9871C26.5553 14.1619 26.5438 14.3408 26.5233 14.5211L23.9524 17.1215C23.563 17.5161 23.3136 17.9945 23.215 18.502C22.7699 18.6383 22.3078 18.7086 21.8339 18.7086ZM10.2809 13.0053C10.3196 12.9808 10.3941 12.9449 10.5119 12.9188L12.769 12.405C13.129 12.3231 13.4146 12.0496 13.5122 11.6935C13.6999 11.0086 13.974 10.3471 14.3271 9.72775C14.5099 9.40713 14.5015 9.01213 14.3051 8.69963L13.0708 6.73463C13.0071 6.63388 12.98 6.55575 12.97 6.511L14.3577 5.12338C14.4025 5.1335 14.4811 5.16075 14.5834 5.22538L16.5464 6.45838C16.8576 6.654 17.2511 6.66313 17.5711 6.48238C18.1933 6.131 18.857 5.85575 19.5441 5.6645C19.8984 5.56575 20.17 5.28088 20.2516 4.92238L20.7665 2.66025C20.7917 2.54625 20.8274 2.47275 20.852 2.43425H22.814C22.8389 2.47325 22.8755 2.54838 22.9023 2.66525L23.416 4.92238C23.4976 5.28088 23.7693 5.56575 24.1235 5.6645C24.8041 5.85413 25.4688 6.12963 26.0987 6.4835C26.4186 6.66325 26.8111 6.6535 27.1222 6.458L29.0829 5.22413C29.1836 5.1605 29.2619 5.13338 29.3065 5.12338L30.6941 6.511C30.6841 6.55575 30.6569 6.63425 30.5926 6.73588L29.3596 8.69525C29.1632 9.00725 29.1543 9.40188 29.3363 9.7225C29.5774 10.1473 29.782 10.5941 29.9489 11.0561L28.4146 12.608C27.7769 9.558 25.0688 7.26013 21.8339 7.26013C18.1245 7.26013 15.1069 10.2779 15.1069 13.987C15.1069 17.6961 18.1246 20.7105 21.8339 20.7105C22.4376 20.7105 23.0287 20.6316 23.601 20.4758C24.0581 21.1985 24.8165 21.6508 25.6876 21.7063C25.1878 21.9565 24.6651 22.1579 24.1276 22.3051C23.7714 22.4028 23.4979 22.6885 23.4161 23.0486L22.903 25.3065C22.8761 25.4231 22.8395 25.4978 22.8148 25.5364H20.8515C20.8271 25.4981 20.7915 25.4246 20.7655 25.3093L20.2518 23.0486C20.17 22.6885 19.8964 22.4028 19.5403 22.3051C18.8554 22.1175 18.194 21.8434 17.5746 21.4903C17.2541 21.3076 16.8591 21.316 16.5464 21.5123L14.5813 22.7466C14.4806 22.8101 14.4024 22.8374 14.3577 22.8473L12.9701 21.4596C12.9801 21.4149 13.0074 21.3364 13.0716 21.2348L14.3046 19.2753C14.5012 18.9628 14.51 18.5673 14.3271 18.2465C13.9741 17.6271 13.6999 16.9658 13.5122 16.2808C13.4146 15.9246 13.129 15.6513 12.769 15.5693L10.513 15.0558C10.3954 15.0289 10.32 14.9921 10.281 14.9673V13.0051L10.2809 13.0053ZM46.3446 16.9741C46.3446 15.8373 47.1908 14.8966 48.3963 14.5574V14.2459C48.3963 13.693 48.8444 13.2449 49.3973 13.2449C49.9501 13.2449 50.3983 13.693 50.3983 14.2459V14.5628C51.2636 14.8121 51.9691 15.3761 52.2803 16.1204C52.4935 16.6304 52.2529 17.2168 51.7429 17.43C51.2335 17.6431 50.6465 17.4028 50.4333 16.8926C50.3517 16.6978 49.9765 16.4233 49.3973 16.4233C48.7656 16.4233 48.3466 16.7549 48.3466 16.9743C48.3466 17.2125 48.3466 17.3213 49.575 17.543C50.5796 17.7244 52.4497 18.0619 52.4497 20.0818C52.4497 21.2186 51.6036 22.1593 50.3983 22.4986V22.8101C50.3983 23.363 49.9501 23.8111 49.3973 23.8111C48.8444 23.8111 48.3963 23.363 48.3963 22.8101V22.4964C47.6341 22.2799 46.9995 21.8188 46.6391 21.1873C46.3652 20.7071 46.5324 20.0958 47.0126 19.8219C47.4931 19.548 48.1041 19.7151 48.3781 20.1954C48.5021 20.4128 48.892 20.6329 49.3971 20.6329C50.0288 20.6329 50.4476 20.3013 50.4476 20.0819C50.4476 19.8436 50.4476 19.735 49.2192 19.5133C48.2146 19.3319 46.3445 18.9944 46.3445 16.9744L46.3446 16.9741ZM30.8675 17.5375C30.8675 16.9846 31.3156 16.5365 31.8685 16.5365H37.2048C37.7576 16.5365 38.2057 16.9846 38.2057 17.5375C38.2057 18.0904 37.7576 18.5385 37.2048 18.5385H31.8685C31.3156 18.5385 30.8675 18.0904 30.8675 17.5375Z" fill="#52AB99"/>
</svg>
