<svg width="64" height="50" viewBox="0 0 64 50" fill="none" xmlns="http://www.w3.org/2000/svg">
<path d="M63.9661 32.7675L60.7164 4.86239C60.4005 2.15077 57.9374 0.201782 55.226 0.517405L7.38872 6.08838C6.11673 6.23651 4.96636 6.86088 4.14961 7.84663C3.81923 8.24525 3.87461 8.83625 4.27323 9.16662C4.67198 9.49699 5.26285 9.44162 5.59335 9.04287C6.10073 8.43062 6.81535 8.04275 7.6056 7.95075L55.443 2.3799C56.2589 2.28477 57.0633 2.51315 57.7076 3.02314C58.3519 3.53302 58.759 4.26327 58.854 5.07939L62.1038 32.9845C62.3 34.6693 61.089 36.1994 59.4044 36.3956L58.0626 36.5519V35.5353C58.0626 35.0175 57.6429 34.5978 57.1251 34.5978C56.6074 34.5978 56.1877 35.0175 56.1877 35.5353V44.5654C56.1877 46.2613 54.8078 47.6412 53.1118 47.6412H4.95086C3.25486 47.6412 1.87499 46.2613 1.87499 44.5654V16.4716C1.87499 14.7756 3.25486 13.3957 4.95086 13.3957H53.1117C54.8077 13.3957 56.1875 14.7756 56.1875 16.4716V31.5218C56.1875 32.0395 56.6073 32.4593 57.125 32.4593C57.6428 32.4593 58.0625 32.0395 58.0625 31.5218V16.4716C58.0625 13.7417 55.8415 11.5207 53.1117 11.5207H4.95086C2.22099 11.5206 0 13.7416 0 16.4716V44.5654C0 47.2952 2.22099 49.5162 4.95086 49.5162H53.1117C55.8415 49.5162 58.0625 47.2952 58.0625 44.5654V38.4395L59.6211 38.258C60.9346 38.105 62.11 37.4496 62.9308 36.4126C63.7515 35.3756 64.1191 34.0811 63.9661 32.7675Z" fill="#52AB99"/>
<path d="M6.95761 37.4761H14.9844C15.5021 37.4761 15.9219 37.0563 15.9219 36.5386C15.9219 36.0208 15.5021 35.6011 14.9844 35.6011H6.95761C6.43986 35.6011 6.02011 36.0208 6.02011 36.5386C6.02011 37.0563 6.43986 37.4761 6.95761 37.4761Z" fill="#52AB99"/>
<path d="M6.95761 42.4927H27.0246C27.5424 42.4927 27.9621 42.0729 27.9621 41.5552C27.9621 41.0374 27.5424 40.6177 27.0246 40.6177H6.95761C6.43986 40.6177 6.02011 41.0374 6.02011 41.5552C6.02011 42.0729 6.43986 42.4927 6.95761 42.4927Z" fill="#52AB99"/>
<path d="M27.0246 35.6011H18.9978C18.4801 35.6011 18.0603 36.0208 18.0603 36.5386C18.0603 37.0563 18.4801 37.4761 18.9978 37.4761H27.0246C27.5423 37.4761 27.9621 37.0563 27.9621 36.5386C27.9621 36.0208 27.5423 35.6011 27.0246 35.6011Z" fill="#52AB99"/>
<path d="M39.0648 35.6011H31.038C30.5203 35.6011 30.1005 36.0208 30.1005 36.5386C30.1005 37.0563 30.5203 37.4761 31.038 37.4761H39.0648C39.5825 37.4761 40.0023 37.0563 40.0023 36.5386C40.0023 36.0208 39.5825 35.6011 39.0648 35.6011Z" fill="#52AB99"/>
<path d="M42.1406 36.5386C42.1406 37.0563 42.5603 37.4761 43.0781 37.4761H51.1049C51.6227 37.4761 52.0424 37.0563 52.0424 36.5386C52.0424 36.0208 51.6227 35.6011 51.1049 35.6011H43.0781C42.5603 35.6011 42.1406 36.0208 42.1406 36.5386Z" fill="#52AB99"/>
<path d="M8.96424 32.4594H14.9844C16.6079 32.4594 17.9286 31.1386 17.9286 29.5151V25.5017C17.9286 23.8784 16.6079 22.5576 14.9844 22.5576H8.96424C7.34086 22.5576 6.02011 23.8784 6.02011 25.5017V29.5151C6.02011 31.1386 7.34086 32.4594 8.96424 32.4594ZM7.89511 25.5017C7.89511 24.9122 8.37474 24.4326 8.96424 24.4326H14.9844C15.5739 24.4326 16.0536 24.9122 16.0536 25.5017V29.5151C16.0536 30.1046 15.574 30.5844 14.9844 30.5844H8.96424C8.37474 30.5844 7.89511 30.1047 7.89511 29.5151V25.5017Z" fill="#52AB99"/>
<path d="M10.9709 28.4458H12.9777C13.4954 28.4458 13.9152 28.0261 13.9152 27.5083C13.9152 26.9906 13.4954 26.5708 12.9777 26.5708H10.9709C10.4532 26.5708 10.0334 26.9906 10.0334 27.5083C10.0334 28.0261 10.4532 28.4458 10.9709 28.4458Z" fill="#52AB99"/>
<path d="M47.6138 29.351C47.7479 29.4177 47.8904 29.4494 48.0307 29.4494C48.3752 29.4494 48.7069 29.2587 48.8708 28.9292C49.6439 27.3754 50.0358 25.7157 50.0358 23.9966C50.0358 22.2774 49.6438 20.6177 48.8708 19.064C48.64 18.6004 48.0774 18.4118 47.6138 18.6423C47.1503 18.8729 46.9614 19.4356 47.192 19.8993C47.8349 21.1913 48.1608 22.5699 48.1608 23.9968C48.1608 25.4236 47.8349 26.8021 47.192 28.0943C46.9613 28.5576 47.1502 29.1204 47.6138 29.351Z" fill="#52AB99"/>
<path d="M44.0143 27.5387C44.1488 27.6058 44.2916 27.6376 44.4323 27.6376C44.7763 27.6376 45.1077 27.4474 45.2718 27.1187C45.7697 26.1212 46.0222 25.0708 46.0222 23.9967C46.0222 22.9226 45.7697 21.8722 45.2718 20.8747C45.0405 20.4114 44.4776 20.2233 44.0142 20.4547C43.551 20.6859 43.363 21.2489 43.5942 21.7123C43.9612 22.4473 44.1472 23.2159 44.1472 23.9967C44.1472 24.7774 43.9612 25.5461 43.5942 26.2811C43.3631 26.7443 43.5512 27.3074 44.0143 27.5387Z" fill="#52AB99"/>
<path d="M40.4236 25.7305C40.56 25.8 40.7052 25.8329 40.8485 25.8329C41.1897 25.8329 41.5188 25.6457 41.6845 25.3209C41.8997 24.8984 42.0088 24.4529 42.0088 23.9967C42.0088 23.5406 41.8997 23.0951 41.6845 22.6726C41.4492 22.2114 40.8847 22.028 40.4235 22.263C39.9622 22.4981 39.7787 23.0626 40.0138 23.524C40.0935 23.6802 40.1338 23.8394 40.1338 23.9969C40.1338 24.1544 40.0935 24.3134 40.0138 24.4697C39.7788 24.9309 39.9622 25.4955 40.4236 25.7305Z" fill="#52AB99"/>
</svg>
