<svg width="50" height="62" viewBox="0 0 50 62" fill="none" xmlns="http://www.w3.org/2000/svg">
<path fill-rule="evenodd" clip-rule="evenodd" d="M12.6823 31.6454L21.8905 24.4754C22.1521 24.2718 22.4974 24.2108 22.8133 24.3132L31.4361 27.1078L38.2886 20.1968L38.011 20.2212C37.4589 20.2685 36.9756 19.8624 36.9274 19.3123C36.8791 18.7622 37.286 18.277 37.8363 18.2287L40.8336 17.9658C41.1331 17.9394 41.427 18.0488 41.6365 18.2634C41.846 18.4779 41.9481 18.7752 41.9149 19.0732L41.5805 22.0635C41.5234 22.5747 41.0905 22.9525 40.588 22.9525C40.5509 22.9525 40.5134 22.9504 40.4758 22.9462C39.9268 22.8848 39.5316 22.3902 39.593 21.8413L39.6081 21.7065L32.4233 28.9527C32.1576 29.2205 31.764 29.3163 31.4049 29.1999L22.701 26.379L13.9111 33.2234C13.7285 33.3655 13.5123 33.4344 13.2975 33.4344C12.9996 33.4344 12.705 33.3019 12.5078 33.0488C12.1684 32.613 12.2465 31.9848 12.6823 31.6454ZM19.0076 17.6235C19.5599 17.6235 20.0076 17.1758 20.0076 16.6235C20.0076 16.0713 19.5599 15.6235 19.0076 15.6235H17.5673C17.015 15.6235 16.5673 16.0713 16.5673 16.6235C16.5673 17.1758 17.015 17.6235 17.5673 17.6235H19.0076ZM22.8994 17.6235H36.3726C36.9249 17.6235 37.3726 17.1758 37.3726 16.6235C37.3726 16.0713 36.9249 15.6235 36.3726 15.6235H22.8994C22.3471 15.6235 21.8994 16.0713 21.8994 16.6235C21.8994 17.1758 22.3471 17.6235 22.8994 17.6235ZM17.5671 13.1157H19.0075C19.5598 13.1157 20.0075 12.6679 20.0075 12.1157C20.0075 11.5634 19.5598 11.1157 19.0075 11.1157H17.5671C17.0149 11.1157 16.5671 11.5634 16.5671 12.1157C16.5671 12.6679 17.0149 13.1157 17.5671 13.1157ZM22.8994 13.1157H36.3726C36.9249 13.1157 37.3726 12.6679 37.3726 12.1157C37.3726 11.5634 36.9249 11.1157 36.3726 11.1157H22.8994C22.3471 11.1157 21.8994 11.5634 21.8994 12.1157C21.8994 12.6679 22.3471 13.1157 22.8994 13.1157ZM17.5671 8.60805H19.0075C19.5598 8.60805 20.0075 8.1603 20.0075 7.60805C20.0075 7.0558 19.5598 6.60805 19.0075 6.60805H17.5671C17.0149 6.60805 16.5671 7.0558 16.5671 7.60805C16.5671 8.1603 17.0149 8.60805 17.5671 8.60805ZM22.8994 8.60805H36.3726C36.9249 8.60805 37.3726 8.1603 37.3726 7.60805C37.3726 7.0558 36.9249 6.60805 36.3726 6.60805H22.8994C22.3471 6.60805 21.8994 7.0558 21.8994 7.60805C21.8994 8.1603 22.3471 8.60805 22.8994 8.60805ZM48.4655 46.7948V53.2387C48.4655 54.3767 47.5396 55.3025 46.4016 55.3025H34.6544L32.0391 56.9129C30.8949 57.6174 29.6429 57.974 28.3474 57.9742C27.707 57.9742 27.0561 57.8871 26.4019 57.7117L17.411 55.3025H13.8006L13.6618 55.3827L14.3298 56.5632C14.9615 57.6797 14.5673 59.1018 13.4511 59.7334L10.9236 61.1638C10.5708 61.3637 10.1801 61.4654 9.78426 61.4654C9.57501 61.4654 9.36451 61.4369 9.15689 61.3794C8.55714 61.2132 8.05876 60.8246 7.75339 60.285L0.322887 47.1559C-0.308988 46.0397 0.0853865 44.6174 1.20164 43.9857L3.72901 42.5554C4.26839 42.25 4.89601 42.1733 5.49576 42.3396C5.58389 42.3639 5.66901 42.3946 5.75239 42.4283V8.57142C5.75239 8.0123 5.96139 7.5078 6.35664 7.1123L12.33 1.13892C12.7255 0.743549 13.2301 0.534424 13.7894 0.534424H46.4016C47.5396 0.534424 48.4655 1.46017 48.4655 2.5983V40.676C48.9801 41.0372 49.2889 41.4607 49.4451 41.7215C50.4521 43.4028 49.9809 45.7907 48.4655 46.7948ZM46.4016 2.53442H14.3486V7.59892C14.3486 8.44367 13.6615 9.1308 12.8168 9.1308H7.75226V44.1882L9.81714 42.9927V37.5723C9.81714 37.0201 10.2649 36.5723 10.8171 36.5723H15.7763C16.3285 36.5723 16.7763 37.0201 16.7763 37.5723V39.3469C17.4919 39.1544 18.2429 39.0642 19.0253 39.1405V31.4324C19.0253 30.8802 19.473 30.4324 20.0253 30.4324H24.9844C25.5366 30.4324 25.9844 30.8802 25.9844 31.4324V41.3695C26.7171 41.5919 27.471 41.7983 28.2335 41.9732V33.4994C28.2335 32.9472 28.6813 32.4994 29.2335 32.4994H34.1926C34.7449 32.4994 35.1926 32.9472 35.1926 33.4994V45.267L37.4416 43.9571V24.9273C37.4416 24.375 37.8894 23.9273 38.4416 23.9273H43.4008C43.953 23.9273 44.4008 24.375 44.4008 24.9273V40.2797C45.1963 40.0503 45.8804 39.9787 46.4655 40.0118V2.5983C46.4655 2.5643 46.4356 2.53442 46.4016 2.53442ZM42.4008 25.9273H39.4416V42.7919L41.6564 41.5019C41.9121 41.3529 42.1601 41.2174 42.4008 41.0937V25.9273ZM31.9655 46.5699C31.91 46.7773 31.8405 46.9737 31.7583 47.1587C32.061 47.0553 32.3565 46.9188 32.6486 46.7488L33.1928 46.4319V34.4994H30.2336V42.5642C31.6419 43.3714 32.3863 44.9997 31.9655 46.5699ZM23.9844 32.4324H21.0253V39.66C21.4003 39.7914 21.7989 39.9354 22.2116 40.0847C22.7684 40.2859 23.3631 40.5007 23.9844 40.7159V32.4324ZM14.7763 38.5723H11.8171V41.8348L13.9575 40.5956C14.2225 40.4422 14.4956 40.2907 14.7763 40.1464V38.5723ZM9.16664 7.1308H12.3486V3.94892L9.16664 7.1308ZM12.5891 57.548L5.15889 44.4192C5.10189 44.3184 5.01076 44.2807 4.96164 44.2669C4.93976 44.2608 4.90814 44.2545 4.87114 44.2545C4.82489 44.2545 4.77001 44.2642 4.71414 44.2958L2.18676 45.7262C2.03289 45.8133 1.97626 46.0169 2.06339 46.1709L9.49389 59.2999C9.55089 59.4005 9.64201 59.4384 9.69114 59.452C9.74026 59.4658 9.83776 59.4802 9.93851 59.4233L12.466 57.9929C12.6199 57.9057 12.6763 57.702 12.5891 57.548ZM47.3378 45.1437C47.986 44.7447 48.1873 43.5138 47.7294 42.7492C47.0529 41.6197 45.1115 41.804 42.663 43.2303L33.6551 48.477C32.231 49.3062 30.7009 49.5753 28.9783 49.2998L27.8576 49.1175C27.8508 49.1164 27.8244 49.1115 27.8179 49.1102C26.4119 48.8227 25.1096 48.4508 23.7309 48.057C23.1053 47.8783 22.4583 47.6936 21.8003 47.5173C21.2668 47.3743 20.9501 46.826 21.0931 46.2925C21.2363 45.759 21.7846 45.4428 22.3179 45.5854C22.9919 45.7659 23.6469 45.953 24.2801 46.134C25.606 46.5127 26.8594 46.8702 28.1741 47.1413C29.1831 47.2559 29.8093 46.8907 30.0338 46.0524C30.245 45.2637 29.7801 44.4619 28.9483 44.1642C26.236 43.6665 23.6296 42.724 21.5319 41.9657C20.803 41.7023 20.1736 41.4745 19.6294 41.298C18.0003 40.7699 16.4221 41.4799 14.9599 42.3265L8.41664 46.1149L12.6766 53.6422L14.3039 52.7027C14.5336 52.57 14.8066 52.5342 15.0626 52.6028L26.9196 55.7799C28.3739 56.1697 29.7434 55.9778 30.9906 55.2098L47.3378 45.1437ZM46.4655 53.2385V48.0297L37.9025 53.3024H46.4016C46.4356 53.3024 46.4655 53.2727 46.4655 53.2385ZM4.32526 45.8946C3.83214 45.9667 3.49076 46.4248 3.56289 46.9179C3.63501 47.411 4.09326 47.7523 4.58639 47.6803C5.07951 47.6083 5.42076 47.1501 5.34876 46.6569C5.27676 46.1638 4.81839 45.8224 4.32526 45.8946Z" fill="#52AB99"/>
</svg>
