<svg width="62" height="62" viewBox="0 0 62 62" fill="none" xmlns="http://www.w3.org/2000/svg">
<path d="M38.0919 43.5961L29.8597 48.3909C29.6569 48.5091 29.4521 48.6091 29.244 48.6912C29.2886 48.5733 29.3281 48.4509 29.3621 48.3242C29.82 46.6149 28.8086 44.8318 27.0596 44.2648C27.0167 44.2509 26.9731 44.2399 26.9287 44.2319C24.5851 43.8093 22.2617 42.9693 20.395 42.2944C19.741 42.0579 19.1232 41.8347 18.5955 41.6636C16.3871 40.9471 14.4159 41.8197 12.7786 42.7674L6.8895 46.1771L6.44612 45.3936C5.8455 44.3321 4.49325 43.9572 3.4315 44.5579L1.12175 45.8652C0.608747 46.1556 0.238997 46.6296 0.0809974 47.1998C-0.0771276 47.7701 -0.00425264 48.3668 0.286122 48.8798L7.07675 60.8784C7.48325 61.5967 8.23375 62.0006 9.0055 62.0006C9.37437 62.0006 9.74812 61.9083 10.0914 61.7141L12.4011 60.4068C12.9141 60.1164 13.2839 59.6426 13.442 59.0722C13.6001 58.5019 13.5272 57.9052 13.2369 57.3922L12.6684 56.3876L13.7364 55.7709L24.1722 58.5672C24.7779 58.7296 25.3804 58.8102 25.9731 58.8102C27.1726 58.8102 28.3317 58.4798 29.3916 57.8273L44.331 48.6283C45.8115 47.7168 46.2864 45.4282 45.3272 43.8268C44.8641 43.0539 42.974 40.7527 38.0919 43.5961ZM11.5145 58.5379C11.5036 58.5772 11.4777 58.6313 11.4159 58.6662L9.10625 59.9736C9.0445 60.0084 8.98475 60.0027 8.94562 59.9919C8.90637 59.9811 8.85225 59.9552 8.81737 59.8934L2.02675 47.8948C1.99187 47.8331 1.9975 47.7734 2.00837 47.7342C2.01925 47.6949 2.04512 47.6408 2.10687 47.6059L4.41662 46.2987C4.44862 46.2806 4.484 46.2721 4.519 46.2721C4.59362 46.2721 4.66712 46.3108 4.70562 46.3788L11.4962 58.3773C11.531 58.4389 11.5254 58.4987 11.5145 58.5379ZM43.2821 46.9253L28.3427 56.1243C27.2235 56.8133 25.9942 56.9852 24.6896 56.6354L13.8536 53.7319C13.5975 53.6634 13.3246 53.6993 13.0949 53.8318L11.683 54.6469L7.8745 47.9177L13.7805 44.4982C15.5842 43.4539 16.8004 43.1837 17.9782 43.5659C18.4744 43.7268 19.0492 43.9347 19.7149 44.1753C21.6331 44.8688 24.0159 45.7303 26.4987 46.1866C27.2121 46.4454 27.6109 47.1321 27.4302 47.8066C27.2381 48.5239 26.6984 48.8368 25.8271 48.7388C24.6304 48.4919 23.4876 48.1659 22.279 47.8208C21.6997 47.6553 21.1007 47.4843 20.484 47.3191C19.9509 47.1764 19.4022 47.4927 19.2592 48.0262C19.1164 48.5597 19.433 49.1079 19.9664 49.2509C20.5672 49.4119 21.1581 49.5807 21.7296 49.7439C22.9912 50.1042 24.1829 50.4446 25.471 50.7078C25.4775 50.7092 25.484 50.7096 25.4904 50.7108C25.4972 50.7121 25.5039 50.7141 25.5107 50.7152L26.5351 50.8817C28.13 51.1369 29.5469 50.8874 30.8661 50.1192L39.0982 45.3243C41.2909 44.0474 43.0201 43.8674 43.6112 44.8546C44.0085 45.5178 43.8394 46.5822 43.2821 46.9253ZM4.95387 48.3814C5.01975 48.8321 4.70787 49.2508 4.25725 49.3167C3.80662 49.3826 3.38787 49.0707 3.322 48.6201C3.25612 48.1694 3.568 47.7507 4.01862 47.6848C4.46925 47.6188 4.888 47.9308 4.95387 48.3814ZM22.2647 40.3726H39.7352C41.2089 40.3726 42.4076 39.1737 42.4076 37.7002V30.6184C43.0832 29.9336 43.4261 29.1453 43.4261 28.2628V24.1858C43.4261 23.1619 42.5931 22.3289 41.5692 22.3289H36.0122V21.3629C36.0122 19.9239 34.8416 18.7533 33.4027 18.7533H28.5974C27.1584 18.7533 25.9877 19.9239 25.9877 21.3629V22.3289H20.4307C19.4069 22.3289 18.5739 23.1619 18.5739 24.1858V28.2628C18.5739 29.1452 18.9167 29.9334 19.5922 30.6182V37.7001C19.5924 39.1737 20.7912 40.3726 22.2647 40.3726ZM39.7352 38.3726H22.2647C21.9002 38.3726 21.5924 38.0647 21.5924 37.7002V31.9089C23.4376 32.6557 26.0504 32.9687 27.9579 33.0992C28.2491 34.5118 29.5025 35.5772 31.0001 35.5772C32.4982 35.5772 33.752 34.5111 34.0426 33.0977C35.9514 32.9663 38.565 32.6528 40.4077 31.9084V37.7002C40.4076 38.0647 40.0996 38.3726 39.7352 38.3726ZM29.894 32.4712C29.894 31.8613 30.3901 31.3652 31.0001 31.3652C31.6099 31.3652 32.1061 31.8613 32.1061 32.4712C32.1061 33.0809 31.61 33.5772 31.0001 33.5772C30.3901 33.5771 29.894 33.0809 29.894 32.4712ZM26.0334 24.3289H35.9669V26.1154C35.9669 26.1544 35.9314 26.1898 35.8924 26.1898H26.1077C26.0687 26.1898 26.0334 26.1543 26.0334 26.1154V24.3289ZM27.9877 21.3629C27.9877 21.0324 28.2669 20.7533 28.5974 20.7533H33.4027C33.7332 20.7533 34.0122 21.0324 34.0122 21.3629V22.3289H27.9877V21.3629ZM20.5739 24.3289H24.0332V26.1154C24.0332 27.2592 24.9639 28.1898 26.1076 28.1898H35.8922C37.0361 28.1898 37.9667 27.2592 37.9667 26.1154V24.3289H41.4261V28.2628C41.4261 28.6206 41.304 29.1086 40.3522 29.7108C39.2671 30.3973 36.8454 30.9097 33.7911 31.1098C33.2856 30.0777 32.2246 29.3651 31 29.3651C29.7747 29.3651 28.7132 30.0783 28.2081 31.1113C25.1582 30.9127 22.7367 30.3997 21.6479 29.7108C20.696 29.1084 20.574 28.6206 20.574 28.2628L20.5739 24.3289ZM23.9082 18.4041L32.1404 13.6092C32.3432 13.4911 32.548 13.3911 32.7562 13.3089C32.7116 13.4268 32.6721 13.5491 32.6381 13.6759C32.1801 15.3852 33.1915 17.1683 34.9406 17.7353C34.9835 17.7492 35.0271 17.7602 35.0715 17.7682C37.4152 18.1908 39.7385 19.0308 41.6054 19.7057C42.2592 19.9422 42.877 20.1654 43.4047 20.3366C43.9721 20.5207 44.5235 20.5998 45.058 20.5998C46.6037 20.5998 48.0051 19.9371 49.2217 19.2327L55.1107 15.8231L55.5541 16.6064C55.9606 17.3247 56.7111 17.7286 57.483 17.7286C57.8519 17.7286 58.2255 17.6363 58.5689 17.4421L60.8786 16.1348C61.3916 15.8444 61.7614 15.3706 61.9194 14.8002C62.0774 14.2298 62.0046 13.6333 61.7142 13.1202L54.9236 1.12156C54.6332 0.608559 54.1592 0.238934 53.589 0.0808087C53.0186 -0.0774413 52.422 -0.00444129 51.909 0.285934L49.5992 1.59318C49.0862 1.88356 48.7165 2.35756 48.5585 2.92781C48.4005 3.49806 48.4732 4.09481 48.7636 4.60781L49.3321 5.61231L48.2641 6.22893L37.8282 3.43268C35.9976 2.94181 34.1926 3.19756 32.6089 4.17256L17.6695 13.3716C16.189 14.2831 15.7141 16.5717 16.6732 18.1731C17.1357 18.9462 19.0259 21.2474 23.9082 18.4041ZM50.4855 3.46218C50.4964 3.42293 50.5222 3.36881 50.584 3.33393L52.8937 2.02668C52.9257 2.00856 52.9611 2.00006 52.9961 2.00006C53.0707 2.00006 53.1442 2.03881 53.1827 2.10681L59.9734 14.1053C60.0082 14.1671 60.0026 14.2268 59.9917 14.2661C59.9809 14.3053 59.955 14.3594 59.8932 14.3943L57.5835 15.7016C57.4835 15.7583 57.3512 15.7216 57.2945 15.6216L50.5039 3.62293C50.469 3.56118 50.4746 3.50143 50.4855 3.46218ZM18.7179 15.0748L33.6572 5.87581C34.7764 5.18693 36.0055 5.01481 37.3104 5.36468L48.1464 8.26818C48.4025 8.33668 48.6754 8.30093 48.9051 8.16831L50.317 7.35318L54.1255 14.0824L48.2195 17.5019C46.4157 18.5462 45.1996 18.8164 44.0217 18.4342C43.5256 18.2733 42.9509 18.0656 42.2854 17.8249C40.367 17.1313 37.9844 16.2699 35.5015 15.8136C34.7881 15.5547 34.3894 14.8681 34.57 14.1936C34.7622 13.4762 35.3017 13.1632 36.173 13.2613C37.3697 13.5082 38.5125 13.8342 39.7211 14.1793C40.3004 14.3448 40.8994 14.5158 41.5161 14.6811C41.6027 14.7043 41.6899 14.7153 41.7755 14.7153C42.217 14.7153 42.6211 14.4207 42.7409 13.9738C42.8837 13.4403 42.5671 12.8921 42.0337 12.7491C41.4329 12.5881 40.842 12.4193 40.2705 12.2561C39.0089 11.8958 37.8172 11.5554 36.5291 11.2922C36.5226 11.2909 36.5162 11.2904 36.5099 11.2893C36.5029 11.2881 36.4962 11.2861 36.4892 11.2849L35.465 11.1184C33.8696 10.8631 32.4531 11.1127 31.1339 11.8809L22.9017 16.6758C20.7091 17.9527 18.9799 18.1327 18.3887 17.1456C17.9915 16.4823 18.1606 15.4179 18.7179 15.0748ZM57.0461 13.6187C56.9802 13.1681 57.2921 12.7493 57.7429 12.6834C58.1935 12.6176 58.6122 12.9294 58.6781 13.3801C58.744 13.8307 58.4321 14.2494 57.9815 14.3153C57.5307 14.3813 57.112 14.0693 57.0461 13.6187ZM0.640747 33.0329L1.51587 33.3698C1.65912 33.8307 1.84412 34.2768 2.06912 34.7043L1.68825 35.5619C1.52025 35.9401 1.6025 36.3824 1.895 36.6749L3.45012 38.2299C3.74262 38.5224 4.18525 38.6048 4.56312 38.4367L5.42125 38.0556C5.84875 38.2804 6.29475 38.4653 6.75512 38.6087L7.09212 39.4842C7.24062 39.8703 7.61162 40.1249 8.02537 40.1249H10.2245C10.6382 40.1249 11.0091 39.8702 11.1577 39.4842L11.4946 38.6091C11.9555 38.4658 12.4016 38.2808 12.8291 38.0558L13.6866 38.4367C14.0647 38.6047 14.5071 38.5224 14.7996 38.2299L16.3547 36.6748C16.6472 36.3823 16.7295 35.9399 16.5615 35.5618L16.1805 34.7037C16.4054 34.2763 16.5902 33.8302 16.7335 33.3698L17.609 33.0328C17.9951 32.8843 18.2497 32.5133 18.2497 32.0996V29.9003C18.2497 29.4866 17.995 29.1157 17.609 28.9671L16.7339 28.6303C16.5906 28.1696 16.4056 27.7233 16.1806 27.2958L16.5615 26.4382C16.7295 26.0601 16.6472 25.6177 16.3547 25.3251L14.7996 23.7701C14.5071 23.4776 14.0647 23.3954 13.6866 23.5633L12.8286 23.9443C12.4011 23.7194 11.9551 23.5346 11.4946 23.3912L11.1576 22.5157C11.009 22.1297 10.638 21.8749 10.2244 21.8749H8.0255C7.61187 21.8749 7.24087 22.1297 7.09225 22.5157L6.75525 23.3912C6.29475 23.5344 5.84862 23.7194 5.42125 23.9443L4.56312 23.5632C4.18512 23.3954 3.74262 23.4774 3.45012 23.7701L1.89512 25.3251C1.60262 25.6176 1.52037 26.0599 1.68837 26.4381L2.06937 27.2959C1.8445 27.7233 1.6595 28.1694 1.51625 28.6301L0.640872 28.9671C0.254747 29.1158 -2.59117e-06 29.4868 -2.59117e-06 29.9006V32.0997C-2.59117e-06 32.5133 0.254747 32.8843 0.640747 33.0329ZM2 30.5872L2.7055 30.3156C3.01325 30.1972 3.24275 29.9346 3.31912 29.6138C3.46525 28.9997 3.70762 28.4151 4.03962 27.8761C4.21262 27.5952 4.236 27.2472 4.10212 26.9457L3.79487 26.2538L4.37887 25.6698L5.07087 25.9771C5.37237 26.1107 5.72037 26.0874 6.00112 25.9146C6.54012 25.5826 7.12475 25.3402 7.73875 25.1941C8.0595 25.1177 8.322 24.8882 8.4405 24.5804L8.712 23.8751H9.53787L9.8095 24.5808C9.928 24.8884 10.1905 25.1181 10.5112 25.1944C11.1251 25.3404 11.7097 25.5829 12.2489 25.9149C12.5297 26.0878 12.8777 26.1112 13.1791 25.9773L13.8711 25.6701L14.4551 26.2541L14.148 26.9456C14.0141 27.2471 14.0375 27.5951 14.2104 27.8758C14.5424 28.4149 14.7849 28.9997 14.931 29.6139C15.0072 29.9347 15.2369 30.1973 15.5446 30.3158L16.25 30.5872V31.4132L15.5444 31.6848C15.2366 31.8032 15.0071 32.0658 14.9307 32.3866C14.7847 33.0004 14.5424 33.5849 14.2102 34.1242C14.0374 34.4051 14.014 34.7531 14.1479 35.0543L14.4551 35.7462L13.8711 36.3303L13.1796 36.0232C12.878 35.8892 12.5301 35.9126 12.2492 36.0857C11.7102 36.4177 11.1255 36.6601 10.5112 36.8062C10.1905 36.8824 9.92787 37.1121 9.8095 37.4198L9.538 38.1251H8.712L8.44037 37.4194C8.322 37.1117 8.05937 36.8822 7.73862 36.8058C7.12487 36.6598 6.54012 36.4174 6.00087 36.0853C5.72012 35.9124 5.37225 35.8891 5.07075 36.0229L4.37875 36.3302L3.79475 35.7462L4.10187 35.0547C4.23575 34.7532 4.21237 34.4052 4.03937 34.1243C3.70737 33.5853 3.465 33.0006 3.31887 32.3863C3.24262 32.0656 3.013 31.8029 2.70525 31.6846L2 31.4131V30.5872ZM9.125 35.8354C11.7912 35.8354 13.9604 33.6663 13.9604 31.0002C13.9604 28.3339 11.7912 26.1648 9.125 26.1648C6.45875 26.1648 4.28975 28.3339 4.28975 31.0002C4.28962 33.6663 6.45875 35.8354 9.125 35.8354ZM9.125 28.1647C10.6884 28.1647 11.9604 29.4367 11.9604 31.0001C11.9604 32.5634 10.6884 33.8353 9.125 33.8353C7.56162 33.8353 6.28975 32.5634 6.28975 31.0001C6.28962 29.4367 7.56162 28.1647 9.125 28.1647ZM61.3592 28.9672L60.4841 28.6304C60.3409 28.1697 60.1559 27.7234 59.9309 27.2959L60.3117 26.4383C60.4797 26.0602 60.3975 25.6178 60.105 25.3253L58.55 23.7703C58.2575 23.4778 57.8151 23.3956 57.437 23.5634L56.5789 23.9446C56.1515 23.7197 55.7055 23.5348 55.245 23.3914L54.908 22.5159C54.7595 22.1298 54.3885 21.8752 53.9747 21.8752H51.7756C51.362 21.8752 50.991 22.1299 50.8424 22.5159L50.5054 23.3914C50.0449 23.5347 49.5989 23.7197 49.1714 23.9446L48.3134 23.5636C47.9354 23.3956 47.493 23.4778 47.2004 23.7703L45.6454 25.3253C45.3529 25.6178 45.2706 26.0602 45.4385 26.4383L45.8195 27.2962C45.5946 27.7236 45.4097 28.1697 45.2664 28.6303L44.391 28.9673C44.0049 29.1158 43.7502 29.4868 43.7502 29.9006V32.0997C43.7502 32.5134 44.005 32.8843 44.391 33.0329L45.2661 33.3698C45.4095 33.8307 45.5944 34.2768 45.8194 34.7043L45.4385 35.5619C45.2706 35.9399 45.3527 36.3824 45.6454 36.6749L47.2004 38.2299C47.4929 38.5224 47.9356 38.6048 48.3134 38.4368L49.1715 38.0557C49.5989 38.2806 50.045 38.4654 50.5054 38.6088L50.8424 39.4843C50.9909 39.8704 51.3619 40.1251 51.7756 40.1251H53.9747C54.3885 40.1251 54.7594 39.8703 54.908 39.4843L55.2449 38.6092C55.7056 38.4659 56.1519 38.2809 56.5794 38.0559L57.437 38.4368C57.8151 38.6048 58.2575 38.5226 58.55 38.2301L60.105 36.6749C60.3975 36.3824 60.4797 35.9401 60.3117 35.5619L59.9307 34.7038C60.1556 34.2764 60.3405 33.8303 60.4837 33.3699L61.3592 33.0329C61.7454 32.8844 62 32.5134 62 32.0997V29.9004C62 29.4868 61.7452 29.1158 61.3592 28.9672ZM60 31.4131L59.2944 31.6847C58.9866 31.8031 58.7571 32.0657 58.6807 32.3864C58.5347 33.0003 58.2924 33.5848 57.9602 34.1241C57.7874 34.4049 57.764 34.7529 57.8979 35.0542L58.2051 35.7462L57.6211 36.3302L56.9296 36.0231C56.628 35.8891 56.2801 35.9124 55.9992 36.0856C55.4602 36.4176 54.8755 36.6599 54.2612 36.8061C53.9405 36.8823 53.6779 37.1119 53.5595 37.4197L53.288 38.1251H52.462L52.1904 37.4194C52.072 37.1117 51.8094 36.8822 51.4886 36.8058C50.8747 36.6598 50.2902 36.4174 49.751 36.0853C49.4702 35.9124 49.1222 35.8892 48.8209 36.0229L48.1289 36.3302L47.5449 35.7462L47.852 35.0547C47.9859 34.7533 47.9625 34.4052 47.7895 34.1244C47.4576 33.5856 47.2152 33.0008 47.069 32.3863C46.9926 32.0656 46.7631 31.8029 46.4554 31.6846L45.75 31.4131V30.5872L46.4555 30.3156C46.7632 30.1972 46.9927 29.9347 47.0691 29.6139C47.2152 28.9996 47.4577 28.4149 47.7896 27.8762C47.9626 27.5953 47.986 27.2473 47.8521 26.9459L47.5449 26.2541L48.129 25.6701L48.8209 25.9773C49.1222 26.1112 49.4702 26.0878 49.7511 25.9149C50.2902 25.5829 50.8749 25.3406 51.4887 25.1944C51.8095 25.1181 52.072 24.8886 52.1905 24.5808L52.4621 23.8751H53.2881L53.5597 24.5807C53.6781 24.8884 53.9406 25.1179 54.2615 25.1943C54.8754 25.3403 55.46 25.5828 55.9991 25.9148C56.2801 26.0877 56.628 26.1111 56.9294 25.9773L57.6214 25.6699L58.2054 26.2539L57.8982 26.9454C57.7644 27.2469 57.7877 27.5949 57.9607 27.8758C58.2927 28.4148 58.5352 28.9997 58.6812 29.6138C58.7575 29.9346 58.9871 30.1972 59.2949 30.3157L60.0002 30.5871V31.4131H60ZM52.875 26.1647C50.2087 26.1647 48.0397 28.3338 48.0397 31.0001C48.0397 33.6663 50.2089 35.8353 52.875 35.8353C55.5411 35.8353 57.7104 33.6663 57.7104 31.0001C57.7104 28.3338 55.5412 26.1647 52.875 26.1647ZM52.875 33.8354C51.3116 33.8354 50.0397 32.5636 50.0397 31.0002C50.0397 29.4368 51.3116 28.1648 52.875 28.1648C54.4384 28.1648 55.7104 29.4368 55.7104 31.0002C55.7104 32.5634 54.4384 33.8354 52.875 33.8354Z" fill="#52AB99"/>
</svg>
