<svg width="62" height="63" viewBox="0 0 62 63" fill="none" xmlns="http://www.w3.org/2000/svg">
<path fill-rule="evenodd" clip-rule="evenodd" d="M21.3129 18.2433C21.9848 18.3504 22.6576 18.2657 23.2689 18.0058V32.0411C23.2689 33.4016 24.3758 34.5084 25.7363 34.5084H48.0839C49.4444 34.5084 50.5511 33.4016 50.5511 32.0411V18.0057C50.9889 18.1919 51.458 18.2888 51.9361 18.2888C52.1258 18.2888 52.3165 18.2737 52.5073 18.2433C53.45 18.0928 54.2778 17.5842 54.838 16.8111C55.3983 16.0379 55.6239 15.0929 55.4734 14.1502C55.3229 13.2074 54.8143 12.3797 54.0421 11.8202L47.8418 7.31531V2.41193C47.8418 1.85968 47.394 1.41193 46.8418 1.41193H43.5301C42.9779 1.41193 42.5301 1.85968 42.5301 2.41193V3.45618L39.0606 0.935431C37.7991 -0.0153188 36.0936 -0.0314438 34.8118 0.897431L19.7789 11.8194C19.0058 12.3796 18.4971 13.2074 18.3466 14.1502C18.1961 15.0929 18.4218 16.0381 18.982 16.8111C19.5424 17.5842 20.3701 18.0928 21.3129 18.2433ZM39.8078 32.5084H34.0126V24.6001C34.0126 23.6621 34.7756 22.8991 35.7136 22.8991H38.1068C39.0448 22.8991 39.8078 23.6621 39.8078 24.6001V32.5084ZM48.084 32.5084H41.8078V24.6001C41.8078 22.5593 40.1475 20.8991 38.1068 20.8991H35.7136C33.6729 20.8991 32.0126 22.5593 32.0126 24.6001V32.5084H25.7364C25.483 32.5084 25.269 32.2944 25.269 32.0411V16.6669L36.9103 8.20918L48.5514 16.6669V32.0411C48.5513 32.2944 48.3373 32.5084 48.084 32.5084ZM44.5303 3.41193H45.8419V5.86231L44.5303 4.90931V3.41193ZM20.9536 13.4382L35.9865 2.51618C36.5433 2.11293 37.3141 2.12081 37.8611 2.53568C37.8666 2.53981 37.8721 2.54381 37.8776 2.54793L52.8678 13.4389C53.5706 13.9483 53.7281 14.9347 53.2189 15.6376C52.972 15.9782 52.6075 16.2022 52.1923 16.2684C51.7769 16.3351 51.3608 16.2354 51.0213 15.9894L37.4979 6.16406C37.3226 6.03668 37.1164 5.97306 36.9101 5.97306C36.7039 5.97306 36.4976 6.03681 36.3224 6.16406L22.7996 15.9889C22.4593 16.2354 22.0429 16.3348 21.6281 16.2683C21.2129 16.2021 20.8484 15.9781 20.6015 15.6374C20.0923 14.9346 20.2498 13.9483 20.9536 13.4382ZM60.5839 37.8013C59.9988 36.8246 57.5975 33.9236 51.2624 37.6131L40.1064 44.1108C39.5544 44.4322 38.9931 44.6603 38.4076 44.7978C38.6239 44.4498 38.7936 44.0563 38.9101 43.6216C39.4818 41.4879 38.2139 39.2603 36.0233 38.5502C35.9804 38.5364 35.9368 38.5254 35.8924 38.5173C32.687 37.9392 29.5231 36.7954 26.9808 35.8763C26.0973 35.5568 25.2626 35.2551 24.5529 35.0249C21.6909 34.0963 19.1073 35.2449 16.9573 36.4907L8.66776 41.2933L8.07276 40.2421C7.35538 38.9739 5.74001 38.5262 4.47138 39.2439L1.34126 41.0154C0.0731319 41.7329 -0.374743 43.3486 0.343132 44.6168L9.54563 60.8769C10.0313 61.7349 10.9279 62.2174 11.8499 62.2174C12.2905 62.2174 12.737 62.1072 13.147 61.8752L16.2771 60.1036C17.5453 59.3859 17.993 57.7703 17.2753 56.5022L16.1475 54.5094L18.0271 53.4242L32.3118 57.2518C33.1198 57.4683 33.9128 57.5764 34.6888 57.5764C36.2358 57.5764 37.7149 57.1467 39.1068 56.2898L59.3524 43.8236C61.2023 42.6843 61.7894 39.8141 60.5839 37.8013ZM15.292 58.3629L12.1619 60.1344C11.859 60.3061 11.4579 60.1949 11.2861 59.8918L2.08363 43.6317C1.91213 43.3286 2.02338 42.9276 2.32638 42.7559L5.45651 40.9846C5.55338 40.9297 5.66038 40.9037 5.76663 40.9037C5.99263 40.9037 6.21551 41.0211 6.33201 41.2273H6.33213L15.5346 57.4873C15.7063 57.7903 15.5951 58.1913 15.292 58.3629ZM58.3038 42.1203L38.0581 54.5866C36.4553 55.5733 34.6961 55.8201 32.8295 55.3198L18.1446 51.3851C17.8885 51.3163 17.6154 51.3522 17.3859 51.4851L15.1624 52.7688L9.65288 43.0341L17.96 38.2213C19.8171 37.1452 21.8269 36.2431 23.9359 36.9276C24.614 37.1474 25.3958 37.4301 26.3009 37.7572C28.8953 38.6952 32.1195 39.8608 35.4651 40.4726C36.6255 40.8783 37.2744 41.9992 36.9781 43.1042C36.5936 44.5394 35.3801 44.7161 34.4146 44.6047C32.6751 44.2548 27.9358 42.9106 27.1299 42.6947C26.5964 42.5518 26.0481 42.8684 25.9051 43.4018C25.7621 43.9352 26.0789 44.4836 26.6123 44.6266C27.404 44.8387 32.2288 46.2072 34.0489 46.5714C34.0543 46.5726 34.0598 46.5737 34.0653 46.5747C34.5226 46.6659 34.9924 46.7512 35.4784 46.8289C37.5554 47.1609 39.3985 46.8374 41.1128 45.8393L52.2689 39.3416C55.475 37.4743 57.942 37.2828 58.8681 38.8292C59.5063 39.8943 59.2214 41.5553 58.3038 42.1203ZM6.17588 43.7912C6.26513 44.4018 5.84251 44.9693 5.23176 45.0586C4.62101 45.1478 4.05363 44.7252 3.96426 44.1144C3.87501 43.5037 4.29763 42.9362 4.90838 42.8469C5.51913 42.7577 6.08663 43.1804 6.17588 43.7912Z" fill="#52AB99"/>
</svg>
