<svg width="54" height="46" viewBox="0 0 54 46" fill="none" xmlns="http://www.w3.org/2000/svg">
<path d="M52.37 26.9563L49.0463 19.4826C48.9738 19.1438 48.6738 18.8901 48.3138 18.8901H41.5788C41.2625 17.9213 40.3513 17.2201 39.2788 17.2201C38.2063 17.2201 37.295 17.9226 36.9788 18.8901H30.2438C29.8838 18.8901 29.5838 19.1438 29.5113 19.4826L26.8288 25.5138C25.9513 25.2238 25.205 24.9926 24.7325 24.8501V22.5276C27.1513 20.8026 27.8288 18.4401 28.01 17.4663C29.9488 16.4313 30.1838 14.8801 30.1075 13.9176C30.4388 12.9088 31.9413 7.74633 29.3375 4.03633C27.6263 1.59758 24.555 0.361328 20.2088 0.361328C15.8625 0.361328 12.8875 1.59008 11.1725 4.01383C8.54501 7.72883 9.98751 12.9351 10.3375 14.0363C10.3013 14.2451 10.28 14.4488 10.2763 14.6426C10.2613 15.4051 10.505 16.0688 10.9838 16.5613C11.4813 17.0738 12.125 17.3038 12.61 17.4076C12.875 19.6326 14.105 21.1738 15.4588 22.2163V25.1051C14.7325 25.3238 13.3625 25.7513 11.855 26.2838C11.5113 26.4051 11.1625 26.5326 10.8175 26.6626H10.815C10.7238 26.6788 10.6413 26.7126 10.5663 26.7563C8.69001 27.4663 7.23251 28.1326 6.23376 28.7363L6.20001 28.7563C4.60876 29.6676 3.54251 31.0863 2.93001 32.1151C1.24876 34.9363 0.576258 38.6876 0.931258 43.2651C1.03501 44.5963 2.18001 45.6401 3.53626 45.6401H16.17C16.17 45.6401 16.175 45.6401 16.1775 45.6401H16.1838H18.52C18.52 45.6401 18.5238 45.6401 18.525 45.6401H18.5325H21.6388C21.6388 45.6401 21.6438 45.6401 21.6463 45.6401H21.6513H36.6513C37.8838 45.6401 38.9225 44.7376 39.2375 43.3926C39.7088 41.3738 39.8163 39.4238 39.56 37.5813H41.3675C42.1538 37.5813 42.7925 36.9426 42.7925 36.1563V34.9413C42.7925 34.1551 42.1538 33.5163 41.3675 33.5163H40.025V21.9388C40.7563 21.7001 41.335 21.1213 41.575 20.3888H47.1725L44.2525 26.9551C43.78 27.2176 43.46 27.7213 43.46 28.2988V28.7363C43.46 31.4101 45.635 33.5863 48.31 33.5863C50.985 33.5863 53.16 31.4113 53.16 28.7363V28.2988C53.16 27.7213 52.84 27.2176 52.3675 26.9551L52.37 26.9563ZM36.9788 20.3901C37.2175 21.1213 37.7963 21.7001 38.5288 21.9401V33.5176H38.3175C37.3038 31.4638 35.9613 30.0763 35.0613 29.3013C35.0825 29.1163 35.095 28.9288 35.095 28.7388V28.3013C35.095 27.7238 34.775 27.2201 34.3025 26.9576L31.3825 20.3913H36.98L36.9788 20.3901ZM30.2438 21.5251L32.5725 26.7613H27.9138L30.2425 21.5251H30.2438ZM26.8938 28.3001C26.8938 28.2788 26.9113 28.2626 26.9313 28.2626H33.555C33.5763 28.2626 33.5925 28.2801 33.5925 28.3001V28.7376C33.5925 30.5851 32.09 32.0876 30.2425 32.0876C28.395 32.0876 26.8925 30.5851 26.8925 28.7376V28.3001H26.8938ZM11.39 11.8626C11.3813 11.8726 11.3725 11.8838 11.3638 11.8951C11.025 10.0101 10.8525 7.05758 12.4 4.87508C13.8175 2.87508 16.4438 1.86133 20.2075 1.86133C23.9713 1.86133 26.69 2.88133 28.1038 4.89258C29.5675 6.97258 29.445 9.74133 29.1263 11.5876C29.0188 11.4588 28.905 11.3326 28.7813 11.2113C26.0875 8.56383 27.0075 6.17383 27.045 6.08008C27.17 5.78633 27.095 5.44758 26.86 5.23258C26.625 5.01758 26.2788 4.97633 25.9988 5.12758C21.5425 7.53383 14.6113 5.18508 14.5413 5.16133C14.2888 5.07383 14.0075 5.12758 13.805 5.30258C13.6025 5.47758 13.5088 5.74758 13.5588 6.01133C14.08 8.72758 12.28 10.8263 11.4138 11.8351L11.3888 11.8638L11.39 11.8626ZM14.0613 16.7163C14.0475 16.3176 13.7213 16.0001 13.3225 15.9913C13.06 15.9863 11.75 15.8963 11.775 14.6726C11.7788 14.5138 11.8013 14.3376 11.8425 14.1513C11.9438 13.6988 12.18 13.2451 12.5275 12.8401L12.5525 12.8113C13.38 11.8463 15.1875 9.74008 15.1525 6.90758C17.1863 7.45258 21.635 8.35008 25.3688 7.03758C25.3213 8.33258 25.6963 10.2838 27.7288 12.2813C28.2238 12.7676 28.5238 13.3351 28.5975 13.9238C28.7288 14.9738 28.2113 15.7463 27.015 16.2838C26.7663 16.3951 26.5975 16.6363 26.575 16.9076C26.565 17.0238 26.2988 19.7788 23.5238 21.5326C22.9538 21.8926 22.3063 22.1901 21.5988 22.4163C20.6388 22.7226 19.5975 22.6863 18.6663 22.3151C18.0238 22.0576 17.34 21.7201 16.7013 21.2801C16.6613 21.2451 16.6163 21.2126 16.5688 21.1863C15.235 20.2276 14.1275 18.8063 14.0588 16.7188L14.0613 16.7163ZM23.2313 23.3901V25.3651L22.85 28.5513C21.9988 29.4638 21.1 29.9213 20.1825 29.9226C18.8225 29.9163 17.6963 28.9163 17.31 28.5276L16.96 25.6251V23.1738C17.37 23.3901 17.7625 23.5663 18.1125 23.7063C18.8025 23.9826 19.5388 24.1201 20.275 24.1201C20.875 24.1201 21.4775 24.0276 22.0563 23.8438C22.465 23.7138 22.8575 23.5613 23.2313 23.3913V23.3901ZM3.53501 44.1401C2.95626 44.1401 2.46876 43.7038 2.42501 43.1488C1.70126 33.8188 5.70126 30.7713 6.94376 30.0588C6.97126 30.0426 6.99376 30.0301 7.00876 30.0213C7.80126 29.5413 8.93251 29.0101 10.375 28.4401L11.3325 33.6938C11.3813 33.9638 11.575 34.1863 11.8363 34.2713L13.03 34.6638L12.2313 35.9913C12.1113 36.1901 12.0913 36.4326 12.175 36.6488L15.0813 44.1413H3.53501V44.1401ZM16.69 44.1401L13.7063 36.4476L14.8 34.6301C14.9175 34.4351 14.94 34.1963 14.86 33.9826C14.78 33.7688 14.6075 33.6026 14.3913 33.5313L12.7288 32.9851L11.8013 27.8976C11.9863 27.8301 12.1713 27.7638 12.355 27.6988C13.6363 27.2451 14.8163 26.8713 15.57 26.6401L17.68 44.1413H16.69V44.1401ZM20.9813 44.1401H19.1913L17.5613 30.6251C18.255 31.0476 19.1463 31.4138 20.1613 31.4213H20.1925C21.0275 31.4213 21.8288 31.1813 22.59 30.7088L20.9813 44.1401ZM23.42 44.1401H22.4925L24.2975 29.0801C24.3238 28.9938 24.3338 28.9051 24.3288 28.8163L24.62 26.3838C25.0388 26.5126 25.59 26.6851 26.215 26.8913L26.1863 26.9563C25.7138 27.2188 25.3938 27.7226 25.3938 28.3001V28.7376C25.3938 30.3663 26.2013 31.8076 27.4363 32.6876L27.3825 32.9838L25.72 33.5313C25.5038 33.6026 25.3313 33.7688 25.2513 33.9826C25.1713 34.1963 25.1938 34.4351 25.3113 34.6301L26.4038 36.4476L23.42 44.1401ZM37.78 43.0513C37.6625 43.5538 37.2963 44.1401 36.6538 44.1401H25.0288L27.935 36.6476C28.0188 36.4313 27.9975 36.1888 27.8788 35.9901L27.0813 34.6626L28.275 34.2701C28.5363 34.1838 28.7288 33.9626 28.7788 33.6926L28.8363 33.3788C29.2825 33.5151 29.755 33.5876 30.245 33.5876C32.1438 33.5876 33.7888 32.4913 34.585 30.8976C35.2313 31.5251 36.0038 32.4251 36.6725 33.6138C36.1413 33.8213 35.7625 34.3363 35.7625 34.9413V36.1563C35.7625 36.9426 36.4013 37.5813 37.1875 37.5813H38.0475C38.3163 39.3001 38.2288 41.1376 37.7813 43.0513H37.78ZM41.295 35.0176V36.0813H37.2613V35.0176H37.83C37.83 35.0176 37.8375 35.0176 37.8425 35.0176H37.8588H41.295ZM39.2788 20.5613C38.7713 20.5613 38.3588 20.1488 38.3588 19.6413C38.3588 19.1338 38.7713 18.7213 39.2788 18.7213C39.7863 18.7213 40.1988 19.1338 40.1988 19.6413C40.1988 20.1488 39.7863 20.5613 39.2788 20.5613ZM48.3125 21.5263L50.6413 26.7626H45.9825L48.3125 21.5263ZM51.6625 28.7388C51.6625 30.5863 50.16 32.0888 48.3125 32.0888C46.465 32.0888 44.9625 30.5863 44.9625 28.7388V28.3013C44.9625 28.2801 44.98 28.2638 45 28.2638H51.6238C51.645 28.2638 51.6613 28.2813 51.6613 28.3013V28.7388H51.6625Z" fill="#52AB99"/>
</svg>
