<svg width="62" height="62" viewBox="0 0 62 62" fill="none" xmlns="http://www.w3.org/2000/svg">
<path d="M58 15H56.7012C57.8616 13.7057 58.6223 12.1031 58.8915 10.3857C59.1606 8.66844 58.9267 6.90994 58.218 5.32271C57.5092 3.73549 56.356 2.38746 54.8977 1.44152C53.4393 0.495571 51.7383 -0.0078125 50 -0.0078125C48.2617 -0.0078125 46.5607 0.495571 45.1023 1.44152C43.644 2.38746 42.4908 3.73549 41.782 5.32271C41.0733 6.90994 40.8394 8.66844 41.1085 10.3857C41.3777 12.1031 42.1384 13.7057 43.2988 15H31V4.99995C31 4.73474 30.8946 4.48038 30.7071 4.29285C30.5196 4.10531 30.2652 3.99995 30 3.99995H26C25.7348 3.99995 25.4804 4.10531 25.2929 4.29285C25.1054 4.48038 25 4.73474 25 4.99995V15H24V0.999953C24 0.734737 23.8946 0.480383 23.7071 0.292846C23.5196 0.10531 23.2652 -4.68493e-05 23 -4.68493e-05H19C18.7348 -4.68493e-05 18.4804 0.10531 18.2929 0.292846C18.1054 0.480383 18 0.734737 18 0.999953V15H17V7.99995C17 7.73474 16.8946 7.48038 16.7071 7.29285C16.5196 7.10531 16.2652 6.99995 16 6.99995H12C11.7348 6.99995 11.4804 7.10531 11.2929 7.29285C11.1054 7.48038 11 7.73474 11 7.99995V15H4C2.9395 15.0011 1.92278 15.423 1.17289 16.1728C0.423001 16.9227 0.00119105 17.9395 0 19V49C0.00119105 50.0605 0.423001 51.0772 1.17289 51.8271C1.92278 52.577 2.9395 52.9988 4 53H24.6125L23.2787 57H20C19.7348 57 19.4804 57.1053 19.2929 57.2928C19.1054 57.4804 19 57.7347 19 58V60H9C8.73478 60 8.48043 60.1053 8.29289 60.2928C8.10536 60.4804 8 60.7347 8 61C8 61.2652 8.10536 61.5195 8.29289 61.7071C8.48043 61.8946 8.73478 62 9 62H53C53.2652 62 53.5196 61.8946 53.7071 61.7071C53.8946 61.5195 54 61.2652 54 61C54 60.7347 53.8946 60.4804 53.7071 60.2928C53.5196 60.1053 53.2652 60 53 60H43V58C43 57.7347 42.8946 57.4804 42.7071 57.2928C42.5196 57.1053 42.2652 57 42 57H38.7212L37.3875 53H58C59.0605 52.9988 60.0772 52.577 60.8271 51.8271C61.577 51.0772 61.9988 50.0605 62 49V19C61.9988 17.9395 61.577 16.9227 60.8271 16.1728C60.0772 15.423 59.0605 15.0011 58 15ZM51 2.07245C52.4945 2.29054 53.8787 2.98524 54.9467 4.05323C56.0147 5.12122 56.7094 6.50542 56.9275 7.99995H51V2.07245ZM50.4137 9.99995H56.9275C56.7548 11.2016 56.2723 12.3376 55.5276 13.2962C54.7828 14.2549 53.8014 15.0033 52.6797 15.4677C51.5581 15.9322 50.335 16.0968 49.1305 15.9453C47.926 15.7938 46.7817 15.3314 45.81 14.6037L50.4137 9.99995ZM43 8.99995C43.0024 7.31743 43.6098 5.69189 44.7113 4.42008C45.8129 3.14827 47.3351 2.31502 49 2.07245V8.5862L44.3963 13.19C43.4885 11.9818 42.9984 10.5111 43 8.99995ZM27 5.99995H29V25H27V5.99995ZM24 17H25V25H24V17ZM20 1.99995H22V25H20V1.99995ZM17 17H18V25H17V17ZM13 8.99995H15V25H13V8.99995ZM41 59V60H21V59H41ZM25.3875 57L26.7213 53H35.2788L36.6125 57H25.3875ZM60 49C59.9993 49.5302 59.7884 50.0385 59.4134 50.4134C59.0385 50.7883 58.5302 50.9993 58 51H4C3.46978 50.9993 2.96148 50.7883 2.58655 50.4134C2.21163 50.0385 2.00069 49.5302 2 49V47H60V49ZM60 45H2V19C2.00069 18.4697 2.21163 17.9614 2.58655 17.5865C2.96148 17.2116 3.46978 17.0006 4 17H11V25H10V19C10 18.7347 9.89464 18.4804 9.70711 18.2928C9.51957 18.1053 9.26522 18 9 18H5C4.73478 18 4.48043 18.1053 4.29289 18.2928C4.10536 18.4804 4 18.7347 4 19V26C4 26.2652 4.10536 26.5195 4.29289 26.7071C4.48043 26.8946 4.73478 27 5 27H37C37.2652 27 37.5196 26.8946 37.7071 26.7071C37.8946 26.5195 38 26.2652 38 26V19C38 18.7347 37.8946 18.4804 37.7071 18.2928C37.5196 18.1053 37.2652 18 37 18H33C32.7348 18 32.4804 18.1053 32.2929 18.2928C32.1054 18.4804 32 18.7347 32 19V25H31V17H45.885C47.1572 17.6571 48.5682 18 50 18C51.4318 18 52.8428 17.6571 54.115 17H58C58.5302 17.0006 59.0385 17.2116 59.4134 17.5865C59.7884 17.9614 59.9993 18.4697 60 19V45ZM8 20V25H6V20H8ZM34 25V20H36V25H34Z" fill="#52AB99"/>
<path d="M11 48H5C4.73478 48 4.48043 48.1054 4.29289 48.2929C4.10536 48.4804 4 48.7348 4 49C4 49.2652 4.10536 49.5196 4.29289 49.7071C4.48043 49.8946 4.73478 50 5 50H11C11.2652 50 11.5196 49.8946 11.7071 49.7071C11.8946 49.5196 12 49.2652 12 49C12 48.7348 11.8946 48.4804 11.7071 48.2929C11.5196 48.1054 11.2652 48 11 48Z" fill="#52AB99"/>
<path d="M15 48H14C13.7348 48 13.4804 48.1054 13.2929 48.2929C13.1054 48.4804 13 48.7348 13 49C13 49.2652 13.1054 49.5196 13.2929 49.7071C13.4804 49.8946 13.7348 50 14 50H15C15.2652 50 15.5196 49.8946 15.7071 49.7071C15.8946 49.5196 16 49.2652 16 49C16 48.7348 15.8946 48.4804 15.7071 48.2929C15.5196 48.1054 15.2652 48 15 48Z" fill="#52AB99"/>
<path d="M42 25C42.1313 25.0002 42.2614 24.9744 42.3828 24.9241C42.5041 24.8739 42.6144 24.8001 42.7071 24.7071L46.4141 21H55C55.2652 21 55.5196 20.8946 55.7071 20.7071C55.8946 20.5196 56 20.2652 56 20C56 19.7348 55.8946 19.4804 55.7071 19.2929C55.5196 19.1054 55.2652 19 55 19H46C45.8687 19 45.7386 19.0259 45.6173 19.0761C45.496 19.1264 45.3857 19.2 45.2929 19.2929L41.2929 23.2929C41.153 23.4327 41.0578 23.6109 41.0192 23.8049C40.9806 23.9989 41.0004 24.2 41.0761 24.3827C41.1518 24.5654 41.28 24.7216 41.4444 24.8315C41.6089 24.9414 41.8022 25 42 25Z" fill="#52AB99"/>
<path d="M55 36C54.4745 36.0004 53.9583 36.1388 53.5031 36.4014C53.0479 36.664 52.6697 37.0415 52.4062 37.4962L41.9375 31.3887C41.7957 30.7073 41.4213 30.0963 40.8785 29.6606C40.3357 29.2248 39.6582 28.9914 38.9622 29.0002C38.2662 29.0091 37.5949 29.2597 37.0634 29.7092C36.5319 30.1586 36.1732 30.7789 36.0488 31.4637L25.5138 39.365C25.2272 38.9236 24.8294 38.5655 24.3605 38.3266C23.8916 38.0878 23.3681 37.9765 22.8426 38.0041C22.3171 38.0318 21.8081 38.1973 21.3668 38.484C20.9255 38.7707 20.5675 39.1685 20.3288 39.6375L9.91625 35.2987C9.75196 34.6137 9.35194 34.0083 8.78624 33.5885C8.22053 33.1687 7.52519 32.9613 6.82195 33.0026C6.11872 33.0439 5.45241 33.3312 4.93968 33.8142C4.42695 34.2973 4.10049 34.9453 4.01744 35.6449C3.93439 36.3444 4.10006 37.0509 4.48543 37.6406C4.87081 38.2302 5.45133 38.6656 6.12536 38.8703C6.79939 39.0751 7.52397 39.0363 8.17223 38.7606C8.8205 38.4849 9.35114 37.99 9.67125 37.3625L20.0837 41.7012C20.2445 42.3703 20.6304 42.9637 21.1767 43.382C21.7231 43.8003 22.3966 44.018 23.0844 43.9987C23.7722 43.9793 24.4325 43.7241 24.9544 43.2758C25.4764 42.8274 25.8283 42.2133 25.9513 41.5362L36.4863 33.635C36.7653 34.0649 37.15 34.4161 37.6036 34.6549C38.0571 34.8937 38.5643 35.0122 39.0767 34.9991C39.5891 34.9859 40.0896 34.8415 40.5303 34.5797C40.971 34.3179 41.3371 33.9474 41.5938 33.5037L52.0625 39.6112C52.1781 40.1665 52.4486 40.6776 52.8428 41.0853C53.2371 41.493 53.7388 41.7807 54.2898 41.9148C54.8409 42.049 55.4186 42.0242 55.9562 41.8434C56.4937 41.6625 56.969 41.333 57.3269 40.8931C57.6847 40.4531 57.9106 39.9207 57.9782 39.3576C58.0458 38.7945 57.9524 38.2238 57.7088 37.7116C57.4653 37.1995 57.0815 36.7668 56.6021 36.4639C56.1226 36.1609 55.5671 36.0001 55 36ZM8 36.005C7.99934 36.2707 7.89325 36.5252 7.70505 36.7127C7.51685 36.9002 7.26192 37.0053 6.99625 37.005C6.73059 37.0047 6.47592 36.8989 6.28819 36.7109C6.10045 36.523 5.995 36.2682 5.995 36.0025C5.995 35.7368 6.10045 35.482 6.28819 35.2941C6.47592 35.1061 6.73059 35.0003 6.99625 35C7.26192 34.9997 7.51685 35.1048 7.70505 35.2923C7.89325 35.4798 7.99934 35.7343 8 36V36.005ZM23 42C22.7349 41.9996 22.4808 41.8942 22.2933 41.7067C22.1058 41.5192 22.0004 41.2651 22 41V40.995C22.001 40.7974 22.0605 40.6046 22.171 40.4408C22.2814 40.277 22.438 40.1496 22.6208 40.0747C22.8036 39.9998 23.0045 39.9807 23.1981 40.0198C23.3918 40.059 23.5695 40.1546 23.7089 40.2947C23.8482 40.4347 23.943 40.6129 23.9811 40.8067C24.0193 41.0006 23.9992 41.2014 23.9234 41.3838C23.8476 41.5663 23.7194 41.7221 23.555 41.8318C23.3907 41.9415 23.1976 42 23 42ZM39 33C38.8022 33 38.6089 32.9413 38.4444 32.8315C38.28 32.7216 38.1518 32.5654 38.0761 32.3827C38.0004 32.2 37.9806 31.9989 38.0192 31.8049C38.0578 31.6109 38.153 31.4327 38.2929 31.2929C38.4327 31.153 38.6109 31.0578 38.8049 31.0192C38.9989 30.9806 39.2 31.0004 39.3827 31.0761C39.5654 31.1518 39.7216 31.28 39.8315 31.4444C39.9414 31.6089 40 31.8022 40 32C39.9996 32.2651 39.8942 32.5192 39.7067 32.7067C39.5192 32.8942 39.2651 32.9996 39 33ZM55 40C54.8022 40 54.6089 39.9413 54.4444 39.8315C54.28 39.7216 54.1518 39.5654 54.0761 39.3827C54.0004 39.2 53.9806 38.9989 54.0192 38.8049C54.0578 38.6109 54.153 38.4327 54.2929 38.2929C54.4327 38.153 54.6109 38.0578 54.8049 38.0192C54.9989 37.9806 55.2 38.0004 55.3827 38.0761C55.5654 38.1518 55.7216 38.28 55.8315 38.4444C55.9414 38.6089 56 38.8022 56 39C55.9996 39.2651 55.8942 39.5192 55.7067 39.7067C55.5192 39.8942 55.2651 39.9996 55 40Z" fill="#52AB99"/>
<path d="M47 42H40C39.7348 42 39.4804 42.1054 39.2929 42.2929C39.1054 42.4804 39 42.7348 39 43C39 43.2652 39.1054 43.5196 39.2929 43.7071C39.4804 43.8946 39.7348 44 40 44H47C47.2652 44 47.5196 43.8946 47.7071 43.7071C47.8946 43.5196 48 43.2652 48 43C48 42.7348 47.8946 42.4804 47.7071 42.2929C47.5196 42.1054 47.2652 42 47 42Z" fill="#52AB99"/>
<path d="M47 39H44C43.7348 39 43.4804 39.1054 43.2929 39.2929C43.1054 39.4804 43 39.7348 43 40C43 40.2652 43.1054 40.5196 43.2929 40.7071C43.4804 40.8946 43.7348 41 44 41H47C47.2652 41 47.5196 40.8946 47.7071 40.7071C47.8946 40.5196 48 40.2652 48 40C48 39.7348 47.8946 39.4804 47.7071 39.2929C47.5196 39.1054 47.2652 39 47 39Z" fill="#52AB99"/>
<path d="M5 30H16C16.2652 30 16.5196 29.8946 16.7071 29.7071C16.8946 29.5196 17 29.2652 17 29C17 28.7348 16.8946 28.4804 16.7071 28.2929C16.5196 28.1054 16.2652 28 16 28H5C4.73478 28 4.48043 28.1054 4.29289 28.2929C4.10536 28.4804 4 28.7348 4 29C4 29.2652 4.10536 29.5196 4.29289 29.7071C4.48043 29.8946 4.73478 30 5 30Z" fill="#52AB99"/>
<path d="M19 30H20C20.2652 30 20.5196 29.8946 20.7071 29.7071C20.8946 29.5196 21 29.2652 21 29C21 28.7348 20.8946 28.4804 20.7071 28.2929C20.5196 28.1054 20.2652 28 20 28H19C18.7348 28 18.4804 28.1054 18.2929 28.2929C18.1054 28.4804 18 28.7348 18 29C18 29.2652 18.1054 29.5196 18.2929 29.7071C18.4804 29.8946 18.7348 30 19 30Z" fill="#52AB99"/>
</svg>
